<svg xmlns="http://www.w3.org/2000/svg" width="222" height="180" viewBox="0 0 222 180">
    <g fill="none">
        <path fill="#D8641D" d="M69 112L73 105 77 112zM69 150L73 143 77 150zM164 150L168 143 172 150z"/>
        <path fill="#FFF" d="M103.784 140h-9.222c-.09-.627-.181-1.255-.09-1.882l1.084-.538c.543-.269.814-.896.814-1.523l.09-5.378v-2.15c0-2.51-.18-4.123-3.074-4.123-1.627 0-3.254.358-4.791.986v5.287l.09 5.467c0 .628 0 1.076.542 1.255l2.17.627c0 .628 0 1.345-.18 1.972h-9.855c-.09-.627-.09-1.165-.09-1.792l1.627-.628c.633-.269.994-.896.994-1.613l.09-5.288v-6.721H81v-2.241c2.08-.448 4.159-.627 6.238-.717.995 0 1.266.358 1.266 1.255v1.075c1.808-1.523 4.069-2.33 6.51-2.33 5.967 0 6.148 2.6 6.148 6.184v3.495l.09 6.005c0 .538.09.807.452.896l2.26.538c.09.627 0 1.255-.18 1.882zM128.728 140h-9.236c-.09-.627-.181-1.255-.09-1.882l1.086-.538c.543-.269.815-.896.815-1.523l.09-5.378v-2.15c0-2.51-.18-4.123-3.078-4.123-1.63 0-3.26.358-4.709.986v5.287l.09 5.467c0 .628 0 1.076.544 1.255l2.173.627c0 .628 0 1.345-.18 1.972h-9.87c-.091-.627-.091-1.165-.091-1.792l1.63-.628c.633-.269 1.086-.896.996-1.613l.09-5.288v-6.721H106v-2.241c2.083-.448 4.165-.627 6.248-.717.996 0 1.268.358 1.268 1.255v1.075c1.81-1.523 4.075-2.33 6.52-2.33 5.976 0 6.157 2.6 6.157 6.184v3.495l.09 6.005c0 .538.091.807.453.896l2.264.538c0 .627-.09 1.255-.272 1.882zM135.089 131.594c.188 4.607 2.733 5.528 6.22 5.528 1.79 0 3.675-.184 5.466-.645l.848 2.672c-2.356 1.29-5.089 1.934-7.822 1.842-5.183 0-9.801-1.75-9.801-8.844 0-6.54 3.77-11.147 9.99-11.147 5.748 0 8.01 3.961 8.01 9.213v1.474l-12.911-.093zm4.24-7.922c-2.638 0-4.24 2.487-4.334 5.62h7.728c.094-3.41-.849-5.62-3.393-5.62zM164.734 125.75c-.903-.538-1.988-.807-3.073-.717-1.356-.09-2.712.269-3.887.986v4.57l.09 5.557c0 .628.09.807.452.896l4.159.807c0 .717 0 1.434-.181 2.151h-11.932c-.09-.627-.181-1.255-.181-1.882l1.537-.538c.903-.18 1.446-1.075 1.265-1.882l.09-5.019v-6.721H150v-2.241c1.989-.359 4.068-.627 6.147-.717.813 0 1.537.269 1.537 1.344v1.345c1.175-1.614 2.983-2.6 4.971-2.689 1.176 0 2.35.18 3.345.717l-1.266 4.033zM20.171 172H.184C0 171.289 0 170.667 0 169.956l1.842-.445c.83-.178 1.474-.711 1.474-1.422l.092-5.511v-10.134c0-1.155-.46-1.51-1.013-1.688l-2.21-.89v-.888c0-.356.091-.622.183-.978h19.25v5.511c-.736.089-1.473.178-2.21.178-.46-2.133-1.382-2.756-2.855-2.756l-6.264-.177v7.822l9.487-.178v3.111l-9.487-.178v1.245l.185 6.666 5.342-.088c2.487-.09 4.237-1.156 5.066-3.378l2.118.444-.829 5.778zM45.812 172h-9.197c-.09-.627-.18-1.255-.09-1.882l1.082-.538c.54-.269.811-.896.811-1.523l.09-5.378v-2.24c0-2.51-.18-4.123-3.065-4.123-1.623 0-3.246.359-4.779.986v5.288l.09 5.467c0 .627 0 1.075.541 1.254l2.164.628c0 .627 0 1.344-.18 1.971H23.45c-.09-.627-.09-1.165-.09-1.792l1.623-.627c.63-.27 1.082-.897.991-1.614l.09-5.287v-6.632H23v-2.241c2.074-.448 4.148-.627 6.221-.717.992 0 1.263.358 1.263 1.255v1.075c1.803-1.523 4.057-2.33 6.491-2.33 5.861 0 6.132 2.6 6.132 6.184v3.495l.09 6.005c0 .538.09.807.45.896l2.255.538c.18.627.09 1.255-.09 1.882zM63.422 156.724c.367.816.459 1.63.459 2.446 0 3.804-3.303 6.34-8.074 6.34-1.376 0-2.752-.182-4.036-.635v3.08h6.33c6.238 0 7.89 1.902 7.89 4.89 0 4.62-5.138 7.155-11.285 7.155-3.853 0-7.706-.906-7.706-4.257 0-1.992 1.651-3.441 3.028-4.075-1.193 0-2.11-.996-2.11-2.174 0-1.63 1.1-3.441 2.385-5.162-1.652-.906-2.57-2.717-2.477-4.619 0-3.441 2.66-6.702 7.89-6.702 2.018-.09 4.036.363 5.78 1.45L67 153.191v3.532h-3.578zm-5.596 15.125h-5.872c-.642.543-1.009 1.268-1.009 2.083 0 1.72 1.468 3.08 5.23 3.08 3.21 0 5.045-1.269 5.045-3.261 0-1.359-1.1-1.902-3.394-1.902zm-2.019-16.392c-2.66 0-3.394 1.901-3.394 3.894 0 2.173.917 3.713 3.303 3.713 2.201 0 3.21-1.449 3.21-3.623 0-2.173-1.009-3.894-3.119-3.984zM68.098 170.028l2.243-.627c.683-.269 1.074-.896.976-1.524l.098-5.287v-6.632H68v-2.241c2.244-.448 4.488-.717 6.732-.717 1.17 0 1.756.269 1.756 1.524v8.155l.097 5.467c0 .896.195 1.165.683 1.255l2.732.627c0 .628-.098 1.345-.195 1.972h-11.61c-.097-.627-.195-1.255-.097-1.972zM104.784 172h-9.222c-.09-.627-.181-1.255-.09-1.882l1.084-.538c.543-.269.904-.896.814-1.523l.09-5.378v-2.24c0-2.51-.18-4.123-3.074-4.123-1.627 0-3.254.359-4.791.986v5.288l.09 5.467c0 .627 0 1.075.542 1.254l2.17.628c0 .627 0 1.344-.18 1.971h-9.855c-.09-.627-.09-1.165-.09-1.792l1.627-.627c.633-.27.994-.897.994-1.614l.09-5.287v-6.632H82v-2.241c2.08-.448 4.159-.627 6.238-.717.995 0 1.266.358 1.266 1.255v1.075c1.808-1.523 4.069-2.33 6.51-2.33 5.967 0 6.148 2.6 6.148 6.184v3.495l.09 6.005c0 .538.09.807.452.896l2.26.538c.09.627 0 1.255-.18 1.882zM111.089 163.594c.188 4.607 2.733 5.528 6.22 5.528 1.79 0 3.675-.184 5.466-.645l.848 2.672c-2.356 1.29-5.089 1.934-7.822 1.842-5.183 0-9.801-1.75-9.801-8.844 0-6.54 3.77-11.147 9.99-11.147 5.748 0 8.01 3.961 8.01 9.12v1.474h-12.911zm4.24-7.922c-2.638 0-4.24 2.487-4.334 5.62h7.728c0-3.41-.849-5.62-3.393-5.62zM131.089 163.594c.188 4.607 2.733 5.528 6.22 5.528 1.79 0 3.675-.184 5.466-.645l.848 2.672c-2.356 1.29-5.089 1.934-7.822 1.842-5.183 0-9.801-1.75-9.801-8.844 0-6.54 3.77-11.147 9.99-11.147 5.748 0 8.01 3.961 8.01 9.12v1.474h-12.911zm4.24-7.922c-2.638 0-4.24 2.487-4.334 5.62h7.728c0-3.41-.943-5.62-3.393-5.62zM159.554 157.817c-.904-.535-1.989-.803-3.074-.714-1.356-.089-2.712.268-3.887.982v4.549l.09 5.53c0 .625.091.803.453.803l4.158.892c0 .714 0 1.427-.181 2.141h-11.842c-.09-.624-.18-1.249-.18-1.873l1.536-.535c.904-.179 1.446-1.07 1.356-1.963l.09-4.995v-6.69H145v-2.23c1.989-.357 4.068-.625 6.147-.714.813 0 1.537.268 1.537 1.338v1.338c1.175-1.606 2.983-2.587 4.971-2.676 1.176 0 2.35.178 3.345.714l-1.446 4.103zM162.098 170.028l2.263-.627c.688-.269 1.082-.896.983-1.524l.099-5.287v-6.632H162v-2.241c2.262-.448 4.525-.717 6.787-.717 1.18 0 1.77.269 1.77 1.524v8.155l.099 5.467c0 .896.196 1.165.59 1.255l2.754.627c0 .628-.098 1.345-.197 1.972h-11.606c-.099-.627-.197-1.255-.099-1.972zM197.819 172h-9.236c-.09-.627-.181-1.255-.09-1.882l1.086-.538c.543-.269.905-.896.815-1.523l.09-5.378v-2.24c0-2.51-.18-4.123-3.078-4.123-1.63 0-3.26.359-4.8.986v5.288l.09 5.467c0 .627 0 1.075.544 1.254l2.173.628c0 .627 0 1.344-.18 1.971h-9.87c-.091-.627-.091-1.165-.091-1.792l1.63-.627c.633-.27 1.086-.897.996-1.614l.09-5.287v-6.632H175v-2.241c2.083-.448 4.165-.627 6.248-.717.996 0 1.268.358 1.268 1.255v1.075c1.81-1.523 4.075-2.33 6.52-2.33 5.976 0 6.157 2.6 6.157 6.184v3.495l.09 6.005c0 .538.091.807.453.896l2.264.538c0 .627 0 1.255-.181 1.882zM215.422 156.723c.367.815.459 1.63.459 2.446 0 3.804-3.303 6.34-8.074 6.34-1.376 0-2.752-.182-4.036-.634v3.079h6.33c6.238 0 7.89 1.902 7.89 4.89 0 4.62-5.138 7.156-11.285 7.156-3.761 0-7.706-.906-7.706-4.257 0-1.992 1.651-3.442 3.12-4.076-1.193 0-2.11-.996-2.11-2.173 0-1.63 1.008-3.442 2.384-5.163-1.65-.996-2.568-2.717-2.477-4.619 0-3.442 2.661-6.702 7.89-6.702 2.019-.09 4.037.453 5.688 1.449L219 153.19v3.532h-3.578zm-5.505 15.126h-5.871c-.642.543-.918 1.268-1.01 2.083 0 1.72 1.469 3.08 5.23 3.08 3.211 0 5.046-1.269 5.046-3.261 0-1.359-1.101-1.902-3.395-1.902zm-2.018-16.394c-2.66 0-3.394 1.902-3.394 3.895 0 2.173.917 3.713 3.302 3.713 2.202 0 3.211-1.449 3.211-3.623 0-2.173-1.1-3.894-3.119-3.985zM79.705 140H68.197c-.099-.632-.197-1.173-.197-1.805l2.164-.54c.787-.272 1.082-.723 1.082-1.625l.197-5.413v-11.64h-3.345v-2.255c2.164-.451 4.427-.632 6.689-.722 1.18 0 1.77.36 1.77 1.534v12.992l.099 5.594c0 .632.098 1.083.492 1.173l2.852.632c0 .722-.098 1.443-.295 2.075zM72.499 114c-2.462 0-4.499-2.038-4.499-4.5s2.037-4.5 4.499-4.5c2.461 0 4.498 2.038 4.498 4.5.085 2.462-1.952 4.5-4.498 4.5zm0-9c-2.462 0-4.499 2.038-4.499 4.5s2.037 4.5 4.499 4.5c2.461 0 4.498-2.038 4.498-4.5 0-2.547-1.952-4.5-4.498-4.5zM72.499 152c-2.462 0-4.499-2.038-4.499-4.5s2.037-4.5 4.499-4.5c2.461 0 4.498 2.038 4.498 4.5.085 2.462-1.952 4.5-4.498 4.5zm0-9c-2.462 0-4.499 2.038-4.499 4.5s2.037 4.5 4.499 4.5c2.461 0 4.498-2.038 4.498-4.5 0-2.547-2.037-4.5-4.498-4.5zM167.499 152c-2.462 0-4.499-2.038-4.499-4.5s2.037-4.5 4.499-4.5c2.461 0 4.498 2.038 4.498 4.5.085 2.462-1.952 4.5-4.498 4.5zm0-9c-2.462 0-4.499 2.038-4.499 4.5s2.037 4.5 4.499 4.5c2.461 0 4.498-2.038 4.498-4.5 0-2.547-2.037-4.5-4.498-4.5z"/>
        <path fill="#D8641D" d="M66.91 17.461c.726-.994 1.998-3.163 2.725-4.338.726-1.175 2.18-3.616 2.725-4.79.545-1.176 1.726-3.345 1.635-4.972-.272-1.898-1.817-3.254-3.724-3.344 0 0-3.27-.452-7.358 3.344-2.271 1.989-4.36 4.158-6.268 6.508 0 0-4.996 6.146-5.723 7.05-2.18 2.621-3.906 5.514-5.269 8.677 0 0-1.907 5.243-2.543 7.683 0 0-.909 4.7-1.09 7.05 0 2.26.09 4.61.363 6.87 1 3.706 2.271 7.321 3.815 10.756l2.635 5.242s3.088 5.875 3.179 7.322c0 0 .908 2.892.182 4.519-.636 2.079-1.908 3.977-3.725 5.242-2.18 1.537-4.632 2.622-7.267 3.254 0 0-5.178 1.627-9.81 2.44 0 0-8.72 1.266-12.082 1.628 0 0-7.358.632-9.72.361 0 0-1.18-.18 0-1.446 0 0 3.725-3.615 7.45-5.152-.818.09-1.636.271-2.272.633-.908.632-.545.18 0-.362s1.272-1.265 1.181-1.446c-.09-.18-.182-.362-.545-.09-.363.27-.273-.09-.363-.181-.091-.09-.091-.271-.455 0-.726.27-1.362.542-2.089.994-.817.633-2.18 1.898-2.18 1.265 0-.632 1-1.446.636-1.265-.363.18-5.723 3.073-6.904 6.056 0 0-.908 2.802 5.087 3.796 1.817.271 3.724.271 5.632.18 2.725 0 5.541-.27 8.266-.632 0 0 5.814-.542 8.63-.904 2.816-.361 9.175-1.807 11.9-2.53 3.089-.814 5.905-2.26 8.357-4.249 2.18-1.627 3.725-3.886 4.27-6.508.545-2.169-.364-5.513-1-6.869-.635-1.356-2.906-6.327-4.45-8.858-1.545-2.53-2.272-5.785-2.908-7.502-.635-1.717-1.998-5.604-1.816-8.587.09-2.892.272-5.875.817-8.677.454-2.17 1.09-4.338 1.726-6.417 1.272-3.164 2.907-6.147 4.724-8.949 1.09-1.536 3.633-4.97 5.36-7.23 1.725-2.26 4.36-5.424 6.358-7.05C67 4.354 68.817 2.998 69.816 2.727c0 0 1-.361.545.543-.635 1.717-1.453 3.344-2.361 4.88-1.09 1.718-2.271 4.43-4.088 6.87 0 0-4.905 7.321-5.814 8.767-.908 1.447-4.45 7.05-5.45 8.858-1 1.718-1.817 3.525-2.271 5.424.908.632 1.817 1.175 2.816 1.627 0 0 .727.542 1.09-1.266 0-.09 0-.271.09-.361.273-2.26 1.908-3.706 4.089-7.322 0 0 2.089-3.434 2.543-4.158.908-1.536 1.908-3.073 2.998-4.519.817-.904 2.18-3.615 2.907-4.61zM77.6 69.34s-1.342-1.579-2.326-1.579c0-.465.09-.93.179-1.394.179-.65.984-1.58 1.073-2.137 0 0-1.968-2.137-3.131-2.23 0 0-2.863 2.788-4.742 4.367-2.863 2.044-4.921 5.204-5.637 8.735 0 0-.447 2.137 3.4 3.159 0 0 1.968 1.487 4.92-.743.985-.65 1.88-1.301 2.775-2.045 1.342 2.51 4.115 3.903 6.889 3.438l-.09-.65c-.089 0-5.457-.372-3.31-8.92zm-3.668-2.136c-.448 1.115-.716 2.23-.895 3.438-.179 1.3-3.132 5.203-6.621 5.575.268-1.952.984-3.81 2.237-5.297 1.79-1.951 3.758-3.716 5.994-5.203 0 0-.447 1.022-.715 1.487zM220.356 74.899c-.548-.18-1.187-.449-1.735-.808 0 0-.183.539-1.644.27-.913-.09-1.826-.36-2.648-.719-.274-.18-.913-.807.183-.987l1.917-.449c.73-.179.457-.538.457-.538l-1.37-1.167-.456.18c-.457.09-1.005.18-1.462.269.366-.628.548-1.346.64-2.064l-2.557-2.513s-2.283.897-2.01 4.846c0 0-4.566.628-5.661.539-1.096-.09-3.105.538-3.105-1.346.09-.808.274-1.706.548-2.513.182-.45 0-.988-.457-1.167h-.091c-.548-.18-1.005-.539-1.37-.987-.548-.45-1.553-.988-2.01 0-.365.807-.913 1.436-1.643 1.974-.822.449-3.744.718-4.749 1.526-.73.538-1.644.808-2.557.897 0 0-.456-.359.365-3.59 0 0 1.279-4.308.457-6.91-.091-.18-.091-.36-.183-.539-.822-1.615-1.826-3.141-3.105-4.487-.274-1.077-.274-2.154 0-3.141.457-1.616.183-2.872-.73-3.59-.73-.449-1.279-1.167-1.644-1.885-1.096.718-1.735 1.885-1.735 3.141.183 1.167.457 2.244 1.004 3.32.64 1.078.731 2.424.183 3.59 0 0-2.283 7.09-2.83 8.258-.549 1.166-2.01 5.744-2.193 6.372-.182.628-.456 2.692-.456 2.961 0 .27-.183.18-.548-.09-.365-.269-2.01-.358-2.922-.538-.914-.18-2.923-.18-3.38-.628-.456-.449-.639-1.346-1.004-1.885-.457-.448-.913-.807-1.552-1.077-.457-.18-1.279-1.346-1.827-1.166 0 0-.64 1.166-1.004 1.795-.366.628-.914 1.794-1.096 2.064-.183.269-.73.718-.73.359-.092-.808 0-1.706.364-2.423.457-.988 1.462-3.41 1.644-3.68.183-.27.822-1.436.822-1.436s-1.735-1.257-2.1-1.616c-.457-.448-1.187-.448-1.735 0-.092.09-.183.27-.274.36l-1.188 2.333s-1.735 1.615-2.557 2.333c0 0-5.114 4.129-6.575 5.116 0 0-2.557 1.077-3.47.628-.091-1.974-.274-3.859-.73-5.833-.183-.45-.548-.718-.914-.988 0 0-.913-.807-1.096-.987-.182-.18-.548-.538-.822-.538-.365 0-.639.18-.73.448-.091.27-.091.629-.091.988 0 .09-.092.18-.092.18-.73-.719-1.46-1.347-2.374-1.796-.73-.27-1.644-.09-2.283.36-.913.538-5.388 3.769-6.119 5.384-.091 1.077.457 2.154 1.37 2.692 0 0 1.553.718 2.01 1.077 1.826.45 3.743.45 5.57 0 .73-.269 1.552-.448 2.374-.359 0 0 .274 2.962.457 3.77 0 0-2.192 2.423-2.74 2.962-.548.538-1.187.09-1.918.718-.73.628-7.031 7.359-8.127 8.885-1.096 1.525-3.653 5.474-1.461 8.256 0 0 .547 1.885 5.844 2.424 5.297.538 3.196.18 5.662-.36 2.283-.448 4.384-1.435 6.119-2.871 1.096-1.077 3.379-2.154 2.83-5.834-.821-2.603-1.46-5.205-1.917-7.898-.548-3.59-.64-5.295-.64-5.295s2.284-2.154 4.567-4.039c2.283-1.884 3.835-3.14 4.84-3.769 1.004-.628 1.826-1.256 1.826-1.256s-.822 4.038 0 5.115 1.187.898 1.735 1.077c.548.18.731.449 1.462.718 1.187.36 2.465 0 3.105-.987.639-.987 1.37-1.885 2.1-2.782 0 0 1.735.718 3.379 1.166 1.644.45 4.749.09 5.662 0 0 0 .182.18 1.096.718.639.36 1.37.629 2.1.718.913-1.795 1.735-3.769 2.283-5.654.548-2.333 2.283-7.987 2.375-9.244.09-.987.273-1.974.639-2.872.182-.359.274 0 .365.449.183 1.436.183 2.872-.183 4.308-.456 1.077-2.1 5.205-1.278 7.18.365.807 1.096 1.525 2.009 1.705.73.09 1.461.449 1.918.987 1.096.27 2.283.18 3.287-.359 0 0 4.292-1.795 4.384-1.974.091-.09.274-.18.365-.18.274.628.64 1.167 1.096 1.705.457.539 1.187.988 1.918 1.167.639.09 1.278.36 1.826.628 1.827.45 3.653.629 5.48.36 1.552-.27 2.465-.988 3.013-.808.548.18 1.553 1.256 2.375 1.525.821.27 1.46.718 2.1 1.077.73.36 1.461.539 2.283.539 1.005 0 2.648-.36 3.196-.449.548-.09 1.918-1.256 1.918-1.256-.457.09-1.096.09-1.644-.09zm-75.888-3.77c-.092.988-.366.09-.731.09s-1.187.628-2.01.718c-.821.09-2.83.628-3.56.718-.731.09-1.097.449-1.097-.269s4.019-3.32 4.019-3.32l1.187.269c.456.09.822.718 1.096.718.274 0 .456-.629.73-.898.274-.27.366 0 .548.359.183.359 0 .628-.182 1.615zm2.465 23.335c-1.37 2.154-3.561 3.68-6.118 4.128-1.918.629-4.019.808-6.028.45-2.009-1.078.548-6.014.548-6.014 1.188-3.23 10.228-11.667 10.228-11.667.274 1.884 1.644 8.705 1.644 8.705.548 3.41-.274 4.308-.274 4.398z"/>
        <path fill="#D8641D" d="M130.553 72.186c-1.27-.367-2.45-1.009-3.359-2.017-.544-.733-1.27-1.374-1.997-1.924-.635-.367-1.18-.825-1.725-1.375-.544-.55-1.543-.55-1.543-.183-.545.825-1.09 1.65-1.725 2.474-.908 1.192-1.906 2.291-2.905 3.3-.998.733-.817 0-.363-1.009.363-1.008 1.997-6.048 2.814-8.706.817-2.658 3.722-10.356 5.084-14.389 1.362-4.032 6.809-16.13 6.809-16.13 1.906-4.765.09-5.04.09-5.04-1.27-1.283-2.542.275-2.905 1.1-.544 1.374-1.09 2.657-1.815 3.849-1.18 2.383-2.18 4.765-2.996 7.24-.636 1.741-3.087 9.256-3.994 11.914-.908 2.658-4.54 10.081-4.54 10.081s-.272-.366-.635.092c-.363.458-1.362 2.108-1.362 2.108-1.906 3.482-4.448 6.598-7.444 9.256-2.088 2.108-3.813 1.008-3.813 1.008-1.18-.733-2.269-6.415-2.269-6.415-.182-1.833 0-3.574.635-5.316.545-2.107 1.271-4.124 2.18-6.048 1.633-5.133 5.718-19.98 5.718-19.98.545-3.482.727-7.056.363-10.63 0-.092-.272-.184-.635-.184s-1.09-1.1-1.09-1.1c-1.089-.641-1.906.825-1.906.825-1.18 2.75-5.083 12.922-5.083 12.922-2.633 6.6-3.269 17.78-3.269 17.78v8.157c-.181.825-.544 1.558-1.18 2.2-.181.183-.544-.55-1.27-1.192-.727-.642-1-1.283-1.726-1.467-.726-.183-1.27 0-1.997 1.009-.454.641-1.09 1.1-1.815 1.374-4.358 3.666-6.809 11.823-6.809 11.823-.454 3.666 1.271 4.307 1.271 4.307.817.275 2.905 1.1 2.905 1.1h.635c.818-.275 1.544-.733 2.18-1.283.544-.55 4.448-4.674 4.448-4.674 1.724-2.2 3.086-4.674 3.994-7.332.635.917 1.18 1.925 1.543 3.024.454 1.009 1.09 1.925 1.816 2.658 4.448 3.3 8.352-1.466 8.352-1.466 2.27-2.566 5.81-8.982 5.81-8.982s-.817 2.567-.817 2.658c-.091.825-.364 1.65-.817 2.383-.545 1.1-.817 2.2-.817 3.391-.182 1.65.544 2.658.998 2.658.726.183 1.362.458 1.997.825 1.907.916 2.814-.184 2.996-.367l1.997-2.016c.999-1.008 3.631-3.483 3.631-3.483C128.647 74.844 136 74.66 136 74.66c-1.725-.916-4.085-2.2-5.447-2.474zM106.95 30.394s-2.905 15.855-6.808 24.379c0 0 1.452-16.589 6.808-24.379zM93.605 70.811c-.908 1.741-1.906 3.39-3.268 4.949-1.18 1.191-2.36 2.383-3.631 3.482-.545.459-1.362 1.467-.817-.55 0-.091 0-.183.09-.274.545-1.65 1.18-3.3 1.998-4.858 1.09-2.383 2.723-4.399 4.72-6.048.545-.184 1.18-.275 1.816-.275.272 1.1-.363 2.382-.908 3.574z"/>
        <path fill="#FFF" d="M90.448 102C88.36 102 87 100.818 87 98.09 87 96 88.633 94 90.538 94c2.269 0 3.448 1.273 3.448 4 .182 2.09-1.451 3.91-3.538 4zm0-7c-1.724 0-1.996 1.727-1.996 3.182 0 1.636.453 2.818 2.268 2.818 1.724 0 1.996-1.455 1.996-3s-.363-3-2.268-3zM95.094 100.418l.844-.333c.28-.167.468-.5.468-.75V94.76h-1.125v-.666l1.125-.166v-.416c0-1.498 1.875-2.496 3.375-2.496 1.031-.084 2.156.166 3 .748.563-.416 1.219-.748 1.969-.748.563 0 2.25.083 2.25.748 0 .333-.188.666-.469.832-.469-.416-.937-.665-1.594-.748-1.687 0-1.78.748-1.78 1.747v.25h1.78v.832h-1.78v2.662l.093 2.33c0 .166 0 .166.188.25l1.78.332c0 .25 0 .416-.093.666h-4.594c0-.167-.094-.416-.094-.583l.657-.25c.375-.082.656-.415.656-.831v-4.41h-4.125v2.662l.094 2.164c0 .333 0 .333.281.416l1.313.25c0 .249 0 .499-.094.665H95c0-.166 0-.333.094-.582zm6.75-6.407v-.333c0-.333.094-.666.187-.915-.469-.5-1.031-.749-1.781-.832-1.875 0-2.625.5-2.625 1.497v.666l4.219-.083zM107.183 98.213c.085 2.51 1.183 2.779 2.535 2.779.676 0 1.268-.09 1.86-.27l.168.718c-.76.448-1.605.627-2.45.538-1.86 0-3.296-.628-3.296-3.586 0-2.689 1.268-4.392 3.296-4.392 1.859 0 2.704 1.434 2.704 3.675v.448h-4.817v.09zm2.028-3.227c-1.014 0-1.859.807-1.943 2.42h3.38c0-1.524-.423-2.42-1.437-2.42zM118 95.167c-.238-.084-.556-.167-.794-.167-.635-.083-1.27.167-1.746.583V97.5l.08 2.333c0 .167 0 .334.158.334l1.27.166c0 .25 0 .417-.08.667h-3.57c0-.167-.08-.417-.08-.583l.556-.334c.317-.25.476-.583.476-1V94.75H113v-.5c.635-.167 1.19-.25 1.825-.25.318 0 .477.083.477.5v.583c.396-.666 1.19-1.083 1.904-1.083.238 0 .556 0 .794.083v1.084zM121.287 102c-.763 0-1.61-.182-2.287-.545l.085-2.182h.592c0 1 .678 1.818 1.61 1.909h.084c.847 0 1.525-.273 1.525-1.091 0-.636-.509-1-1.694-1.455-1.016-.454-2.033-1-2.033-2.454 0-1.455 1.101-2.182 2.54-2.182.763 0 1.44.182 2.118.545l-.254 1.91-.508-.091c-.17-.91-.847-1.546-1.694-1.455-.762 0-1.27.455-1.27 1 0 .91.762 1.091 1.694 1.546 1.016.454 2.201 1 2.201 2.454.085 1.546-1.355 2.091-2.71 2.091z"/>
    </g>
</svg>
